<svg id="Capa_1" enable-background="new 0 0 513.737 513.737" height="512" viewBox="0 0 513.737 513.737" width="512" xmlns="http://www.w3.org/2000/svg"><g><path d="m26.241 438.755v-413.04c0-10.06 8.155-18.215 18.215-18.215h424.826c10.06 0 18.215 8.155 18.215 18.215v413.041 48.741h-461.256z" fill="#7ca1b1"/><path d="m498.817 506.237h-483.897c-3.519 0-6.372-2.853-6.372-6.372v-24.737c0-3.519 2.853-6.372 6.372-6.372h483.897c3.519 0 6.372 2.853 6.372 6.372v24.737c0 3.519-2.853 6.372-6.372 6.372z" fill="#c68d7a"/><path d="m375.745 421.869h-237.753c-5.983 0-10.834-4.851-10.834-10.834v-302.206c0-5.983 4.851-10.834 10.834-10.834h237.752c5.983 0 10.834 4.851 10.834 10.834v302.207c.001 5.983-4.85 10.833-10.833 10.833z" fill="#99e6fc"/><path d="m294.941 382.629c-67.822 0-122.802-54.98-122.802-122.802v-161.832h-34.147c-5.983 0-10.834 4.851-10.834 10.834v302.207c0 5.983 4.851 10.834 10.834 10.834h237.752c5.983 0 10.834-4.851 10.834-10.834v-28.406h-91.637z" fill="#62dbfb"/><g fill="#fee97d"><circle cx="257.368" cy="52.271" r="16.605"/><circle cx="169.23" cy="52.271" r="16.605"/><circle cx="78.048" cy="52.271" r="16.605"/><circle cx="78.048" cy="130.969" r="16.605"/><circle cx="78.048" cy="209.668" r="16.605"/><circle cx="78.048" cy="288.366" r="16.605"/><circle cx="78.048" cy="367.064" r="16.605"/><circle cx="345.507" cy="52.271" r="16.605"/><circle cx="436.689" cy="52.271" r="16.605"/><circle cx="436.689" cy="130.969" r="16.605"/><circle cx="436.689" cy="209.668" r="16.605"/><circle cx="436.689" cy="288.366" r="16.605"/><circle cx="436.689" cy="367.064" r="16.605"/></g><g><path d="m498.818 461.255h-45.523c-4.143 0-7.5 3.358-7.5 7.5s3.357 7.5 7.5 7.5h44.395v22.481h-481.642v-22.481h405.284c4.143 0 7.5-3.358 7.5-7.5s-3.357-7.5-7.5-7.5h-406.413c-7.648 0-13.871 6.223-13.871 13.872v24.737c0 7.649 6.223 13.872 13.871 13.872h483.898c7.648 0 13.871-6.223 13.871-13.872v-24.737c.001-7.648-6.222-13.872-13.87-13.872z"/><path d="m26.24 446.255c4.143 0 7.5-3.358 7.5-7.5v-413.041c0-5.907 4.807-10.714 10.715-10.714h359.647c4.143 0 7.5-3.358 7.5-7.5s-3.357-7.5-7.5-7.5h-359.647c-14.178 0-25.715 11.536-25.715 25.714v413.041c0 4.142 3.358 7.5 7.5 7.5z"/><path d="m436.066 15h33.216c5.908 0 10.715 4.807 10.715 10.714v413.041c0 4.142 3.357 7.5 7.5 7.5s7.5-3.358 7.5-7.5v-413.041c-.001-14.178-11.536-25.714-25.716-25.714h-33.216c-4.143 0-7.5 3.358-7.5 7.5s3.358 7.5 7.501 7.5z"/><path d="m127.158 357.494c-4.143 0-7.5 3.358-7.5 7.5v46.042c0 10.109 8.225 18.334 18.334 18.334h237.752c10.109 0 18.334-8.225 18.334-18.334v-302.207c0-10.109-8.225-18.334-18.334-18.334h-237.752c-10.109 0-18.334 8.225-18.334 18.334v224.203c0 4.142 3.357 7.5 7.5 7.5s7.5-3.358 7.5-7.5v-224.203c0-1.838 1.496-3.334 3.334-3.334h237.752c1.838 0 3.334 1.496 3.334 3.334v302.207c0 1.838-1.496 3.334-3.334 3.334h-237.752c-1.838 0-3.334-1.496-3.334-3.334v-46.042c0-4.142-3.357-7.5-7.5-7.5z"/><path d="m281.474 52.271c0-13.292-10.813-24.105-24.105-24.105s-24.105 10.813-24.105 24.105 10.813 24.105 24.105 24.105 24.105-10.813 24.105-24.105zm-33.211 0c0-5.021 4.085-9.105 9.105-9.105s9.105 4.084 9.105 9.105-4.085 9.105-9.105 9.105-9.105-4.084-9.105-9.105z"/><path d="m193.335 52.271c0-13.292-10.813-24.105-24.105-24.105-13.291 0-24.104 10.813-24.104 24.105s10.813 24.105 24.104 24.105c13.292 0 24.105-10.813 24.105-24.105zm-33.21 0c0-5.021 4.084-9.105 9.104-9.105s9.105 4.084 9.105 9.105-4.085 9.105-9.105 9.105-9.104-4.084-9.104-9.105z"/><path d="m78.047 28.166c-13.291 0-24.104 10.813-24.104 24.105s10.813 24.105 24.104 24.105c13.292 0 24.105-10.813 24.105-24.105.001-13.292-10.813-24.105-24.105-24.105zm0 33.21c-5.021 0-9.104-4.084-9.104-9.105s4.084-9.105 9.104-9.105 9.105 4.084 9.105 9.105c.001 5.021-4.084 9.105-9.105 9.105z"/><path d="m78.047 106.864c-13.291 0-24.104 10.813-24.104 24.105s10.813 24.105 24.104 24.105c13.292 0 24.105-10.813 24.105-24.105s-10.813-24.105-24.105-24.105zm0 33.21c-5.021 0-9.104-4.084-9.104-9.105s4.084-9.105 9.104-9.105 9.105 4.084 9.105 9.105-4.084 9.105-9.105 9.105z"/><path d="m78.047 185.563c-13.291 0-24.104 10.813-24.104 24.105s10.813 24.105 24.104 24.105c13.292 0 24.105-10.813 24.105-24.105s-10.813-24.105-24.105-24.105zm0 33.209c-5.021 0-9.104-4.084-9.104-9.105s4.084-9.105 9.104-9.105 9.105 4.084 9.105 9.105-4.084 9.105-9.105 9.105z"/><path d="m78.047 264.261c-13.291 0-24.104 10.813-24.104 24.105s10.813 24.105 24.104 24.105c13.292 0 24.105-10.813 24.105-24.105s-10.813-24.105-24.105-24.105zm0 33.21c-5.021 0-9.104-4.084-9.104-9.105s4.084-9.105 9.104-9.105 9.105 4.084 9.105 9.105-4.084 9.105-9.105 9.105z"/><path d="m78.047 342.959c-13.291 0-24.104 10.813-24.104 24.105s10.813 24.105 24.104 24.105c13.292 0 24.105-10.813 24.105-24.105.001-13.292-10.813-24.105-24.105-24.105zm0 33.21c-5.021 0-9.104-4.084-9.104-9.105s4.084-9.105 9.104-9.105 9.105 4.084 9.105 9.105c.001 5.021-4.084 9.105-9.105 9.105z"/><path d="m369.612 52.271c0-13.292-10.813-24.105-24.104-24.105-13.292 0-24.105 10.813-24.105 24.105s10.813 24.105 24.105 24.105c13.29 0 24.104-10.813 24.104-24.105zm-33.21 0c0-5.021 4.085-9.105 9.105-9.105s9.104 4.084 9.104 9.105-4.084 9.105-9.104 9.105-9.105-4.084-9.105-9.105z"/><path d="m436.69 76.376c13.291 0 24.104-10.813 24.104-24.105s-10.813-24.105-24.104-24.105c-13.292 0-24.105 10.813-24.105 24.105-.001 13.292 10.813 24.105 24.105 24.105zm0-33.21c5.021 0 9.104 4.084 9.104 9.105s-4.084 9.105-9.104 9.105-9.105-4.084-9.105-9.105c-.001-5.021 4.084-9.105 9.105-9.105z"/><path d="m436.69 155.074c13.291 0 24.104-10.813 24.104-24.105s-10.813-24.105-24.104-24.105c-13.292 0-24.105 10.813-24.105 24.105s10.813 24.105 24.105 24.105zm0-33.21c5.021 0 9.104 4.084 9.104 9.105s-4.084 9.105-9.104 9.105-9.105-4.084-9.105-9.105 4.084-9.105 9.105-9.105z"/><path d="m436.69 233.772c13.291 0 24.104-10.813 24.104-24.105s-10.813-24.105-24.104-24.105c-13.292 0-24.105 10.813-24.105 24.105s10.813 24.105 24.105 24.105zm0-33.209c5.021 0 9.104 4.084 9.104 9.105s-4.084 9.105-9.104 9.105-9.105-4.084-9.105-9.105 4.084-9.105 9.105-9.105z"/><path d="m436.69 312.471c13.291 0 24.104-10.813 24.104-24.105s-10.813-24.105-24.104-24.105c-13.292 0-24.105 10.813-24.105 24.105s10.813 24.105 24.105 24.105zm0-33.21c5.021 0 9.104 4.084 9.104 9.105s-4.084 9.105-9.104 9.105-9.105-4.084-9.105-9.105 4.084-9.105 9.105-9.105z"/><path d="m436.69 391.169c13.291 0 24.104-10.813 24.104-24.105s-10.813-24.105-24.104-24.105c-13.292 0-24.105 10.813-24.105 24.105-.001 13.292 10.813 24.105 24.105 24.105zm0-33.21c5.021 0 9.104 4.084 9.104 9.105s-4.084 9.105-9.104 9.105-9.105-4.084-9.105-9.105c-.001-5.021 4.084-9.105 9.105-9.105z"/></g></g></svg>