<?xml version="1.0" encoding="iso-8859-1"?>
<!-- Generator: Adobe Illustrator 19.0.0, SVG Export Plug-In . SVG Version: 6.00 Build 0)  -->
<svg version="1.1" id="Layer_1" xmlns="http://www.w3.org/2000/svg" xmlns:xlink="http://www.w3.org/1999/xlink" x="0px" y="0px"
	 viewBox="0 0 512 512" style="enable-background:new 0 0 512 512;" xml:space="preserve">
<rect x="68.267" y="4.267" style="fill:#6EC98D;" width="256" height="494.933"/>
<polygon style="fill:#6B5B4B;" points="102.4,38.4 102.4,499.2 68.267,499.2 68.267,4.267 76.8,4.267 76.8,12.8 "/>
<polygon style="fill:#BFA380;" points="324.267,4.267 324.267,12.8 315.733,12.8 290.133,38.4 102.4,38.4 76.8,12.8 76.8,4.267 "/>
<polygon style="fill:#6B5B4B;" points="324.267,12.8 324.267,499.2 290.133,499.2 290.133,38.4 315.733,12.8 "/>
<rect x="153.6" y="72.533" style="fill:#FFFFFF;" width="85.333" height="110.933"/>
<g>
	<path style="fill:#426D5F;" d="M196.267,157.867c-4.71,0-8.533-3.823-8.533-8.533v-25.6c0-4.71,3.823-8.533,8.533-8.533
		s8.533,3.823,8.533,8.533v25.6C204.8,154.044,200.977,157.867,196.267,157.867z"/>
	<path style="fill:#426D5F;" d="M196.267,115.2c-4.71,0.026-8.559-3.772-8.585-8.482c-0.017-2.295,0.896-4.497,2.526-6.11
		c2.014-1.997,4.898-2.859,7.68-2.304c0.563,0.077,1.109,0.256,1.621,0.512c0.521,0.171,1.015,0.427,1.451,0.768
		c0.478,0.273,0.913,0.614,1.28,1.024c0.828,0.785,1.468,1.749,1.877,2.816c0.435,1.024,0.666,2.125,0.683,3.243
		c-0.009,2.278-0.93,4.463-2.56,6.059c-0.367,0.41-0.802,0.751-1.28,1.024c-0.435,0.341-0.93,0.597-1.451,0.768
		c-0.512,0.256-1.058,0.427-1.621,0.512L196.267,115.2z"/>
	<path style="fill:#426D5F;" d="M204.8,132.267h-17.067c-4.71,0-8.533-3.823-8.533-8.533c0-4.71,3.823-8.533,8.533-8.533H204.8
		c4.71,0,8.533,3.823,8.533,8.533C213.333,128.444,209.51,132.267,204.8,132.267z"/>
</g>
<path style="fill:#61B872;" d="M435.2,430.933c-4.71,0-8.533-3.823-8.533-8.533c0-23.723,0-56.235-14.592-70.741
	c-3.063-3.575-2.645-8.969,0.93-12.032c3.191-2.739,7.91-2.739,11.102,0c19.627,19.541,19.627,56.064,19.627,82.773
	C443.733,427.11,439.91,430.933,435.2,430.933z"/>
<g>
	<path style="fill:#3D6F44;" d="M418.133,345.6c-28.331,0-51.2-26.709-51.2-59.733C395.264,285.867,418.133,312.576,418.133,345.6z"
		/>
	<path style="fill:#3D6F44;" d="M435.2,388.267c27.221,7.68,57.6-15.531,67.755-51.797
		C475.733,328.533,445.44,351.915,435.2,388.267z"/>
</g>
<path style="fill:#DC691D;" d="M484.096,432.811L469.333,499.2h-68.267l-14.763-66.389c-1.041-4.599,1.843-9.165,6.443-10.206
	c0.683-0.154,1.391-0.222,2.091-0.205h81.152c4.71,0.119,8.431,4.036,8.311,8.747C484.292,431.71,484.215,432.265,484.096,432.811z"
	/>
<g>
	<rect x="102.4" y="430.933" style="fill:#949493;" width="187.733" height="68.267"/>
	<path style="fill:#949493;" d="M256,234.667c-4.71,0-8.533,3.823-8.533,8.533v8.533h-25.6c-4.71,0-8.533,3.823-8.533,8.533
		c0,4.71,3.823,8.533,8.533,8.533h25.6v8.533c0,4.71,3.823,8.533,8.533,8.533c4.71,0,8.533-3.823,8.533-8.533V243.2
		C264.533,238.49,260.71,234.667,256,234.667z"/>
</g>
<path style="fill:#6B5B4B;" d="M503.467,507.733H8.533C3.823,507.733,0,503.91,0,499.2c0-4.71,3.823-8.533,8.533-8.533h494.933
	c4.71,0,8.533,3.823,8.533,8.533C512,503.91,508.177,507.733,503.467,507.733z"/>
<g>
</g>
<g>
</g>
<g>
</g>
<g>
</g>
<g>
</g>
<g>
</g>
<g>
</g>
<g>
</g>
<g>
</g>
<g>
</g>
<g>
</g>
<g>
</g>
<g>
</g>
<g>
</g>
<g>
</g>
</svg>
